<?xml version="1.0" encoding="UTF-8"?>
<svg xmlns="http://www.w3.org/2000/svg" xmlns:xlink="http://www.w3.org/1999/xlink" width="421.86pt" height="85.44pt" viewBox="0 0 421.86 85.44" version="1.1">
<defs>
<clipPath id="clip1">
  <path d="M 0 0 L 421.859375 0 L 421.859375 85.441406 L 0 85.441406 Z M 0 0 "/>
</clipPath>
</defs>
<g id="surface1">
<g clip-path="url(#clip1)" clip-rule="nonzero">
<path style=" stroke:none;fill-rule:evenodd;fill:rgb(13.699341%,12.199402%,12.5%);fill-opacity:1;" d="M 396.628906 1.605469 C 396.238281 4.015625 396.042969 5.761719 396.042969 6.84375 C 396.042969 8.613281 396.519531 10.421875 397.464844 12.265625 C 397.957031 13.191406 398.640625 14.253906 399.511719 15.460938 C 400.386719 16.664063 401.445313 18.03125 402.699219 19.554688 C 407.855469 25.820313 411.371094 30.210938 413.246094 32.722656 C 415.125 35.230469 416.648438 37.671875 417.824219 40.039063 C 420.519531 45.140625 421.863281 50.242188 421.863281 55.34375 C 421.863281 60.5625 420.613281 65.503906 418.113281 70.164063 C 413.230469 79.28125 404.382813 83.839844 391.582031 83.839844 L 370.105469 83.839844 L 370.105469 64.113281 L 389.140625 64.113281 C 393.15625 64.113281 395.996094 63.046875 397.664063 60.917969 C 399.0625 59.109375 399.765625 57.242188 399.765625 55.3125 C 399.765625 52.859375 398.988281 50.429688 397.433594 48.019531 C 396.675781 46.8125 395.3125 44.914063 393.339844 42.320313 C 391.367188 39.730469 388.828125 36.566406 385.71875 32.828125 C 380.449219 26.476563 377.128906 21.535156 375.765625 18 C 374.550781 14.824219 373.945313 11.929688 373.945313 9.320313 C 373.945313 8.273438 374.003906 7.171875 374.117188 6.003906 C 374.230469 4.839844 374.4375 3.371094 374.742188 1.605469 Z M 342.640625 1.605469 C 342.25 4.015625 342.054688 5.761719 342.054688 6.84375 C 342.054688 8.613281 342.527344 10.421875 343.476563 12.265625 C 343.96875 13.191406 344.652344 14.253906 345.523438 15.460938 C 346.398438 16.664063 347.460938 18.03125 348.710938 19.554688 C 353.867188 25.820313 357.382813 30.210938 359.261719 32.722656 C 361.136719 35.230469 362.664063 37.671875 363.839844 40.039063 C 366.527344 45.140625 367.875 50.242188 367.875 55.34375 C 367.875 60.5625 366.625 65.503906 364.128906 70.164063 C 359.242188 79.28125 350.394531 83.839844 337.59375 83.839844 L 316.121094 83.839844 L 316.121094 64.113281 L 335.152344 64.113281 C 339.167969 64.113281 342.007813 63.046875 343.675781 60.917969 C 345.078125 59.109375 345.777344 57.242188 345.777344 55.3125 C 345.777344 52.859375 345 50.429688 343.445313 48.019531 C 342.6875 46.8125 341.324219 44.914063 339.351563 42.320313 C 337.378906 39.730469 334.839844 36.566406 331.730469 32.828125 C 326.460938 26.476563 323.140625 21.535156 321.773438 18 C 320.5625 14.824219 319.957031 11.929688 319.957031 9.320313 C 319.957031 8.273438 320.015625 7.171875 320.128906 6.003906 C 320.242188 4.839844 320.449219 3.371094 320.753906 1.605469 Z M 272.042969 18.863281 C 266.253906 18.863281 261.789063 21.136719 258.648438 25.679688 C 255.8125 29.863281 254.390625 35.472656 254.390625 42.507813 C 254.390625 49.867188 256.035156 55.839844 259.328125 60.425781 C 262.28125 64.527344 266.613281 66.578125 272.328125 66.578125 C 278.421875 66.578125 283 64.105469 286.0625 59.160156 C 288.675781 54.855469 289.980469 49.484375 289.980469 43.050781 C 289.980469 35.210938 288.238281 29.140625 284.757813 24.835938 C 283.246094 22.90625 281.421875 21.429688 279.28125 20.402344 C 277.144531 19.378906 274.730469 18.863281 272.042969 18.863281 M 271.929688 0 C 278.707031 0 285.144531 1.566406 291.238281 4.699219 C 299.339844 8.914063 305.171875 15.375 308.726563 24.085938 C 310.960938 29.664063 312.078125 36.007813 312.078125 43.113281 C 312.078125 55.273438 308.40625 65.371094 301.0625 73.398438 C 293.71875 81.425781 284.273438 85.441406 272.726563 85.441406 C 261.253906 85.441406 251.753906 81.628906 244.21875 74 C 236.269531 65.933594 232.292969 55.617188 232.292969 43.050781 C 232.292969 35.265625 233.921875 28.101563 237.175781 21.558594 C 240.8125 14.171875 246.242188 8.511719 253.476563 4.578125 C 256.273438 3.089844 259.210938 1.957031 262.273438 1.175781 C 265.34375 0.394531 268.5625 0 271.929688 0 M 169.875 1.605469 L 195.484375 1.605469 C 201.960938 1.605469 206.578125 1.855469 209.339844 2.355469 C 212.105469 2.859375 214.71875 3.953125 217.179688 5.636719 C 219.640625 7.324219 221.570313 9.628906 222.96875 12.558594 C 224.636719 15.972656 225.46875 19.644531 225.46875 23.578125 C 225.46875 27.949219 224.605469 31.621094 222.886719 34.59375 C 221.164063 37.5625 218.410156 40.152344 214.625 42.359375 C 222.476563 45.613281 226.398438 51.785156 226.398438 60.867188 C 226.398438 65.328125 225.339844 69.449219 223.21875 73.226563 C 220.300781 78.410156 215.890625 81.667969 209.980469 82.992188 C 207.445313 83.554688 203.542969 83.839844 198.28125 83.839844 L 169.875 83.839844 L 169.875 64.113281 L 195.125 64.113281 C 200.078125 64.113281 202.558594 62.109375 202.558594 58.105469 C 202.558594 56.164063 201.960938 54.746094 200.769531 53.859375 C 199.578125 52.96875 197.675781 52.523438 195.066406 52.523438 L 169.875 52.523438 L 169.875 32.796875 L 195.140625 32.796875 C 197.980469 32.796875 200.058594 32.324219 201.382813 31.378906 C 202.710938 30.433594 203.371094 28.933594 203.371094 26.882813 C 203.371094 23.179688 201.023438 21.332031 196.332031 21.332031 L 169.875 21.332031 Z M 127.957031 83.839844 L 108.417969 83.839844 L 108.417969 33.167969 L 127.957031 33.167969 Z M 75.96875 1.605469 L 130.785156 1.605469 C 137.558594 1.605469 142.503906 2.054688 145.625 2.960938 C 148.746094 3.863281 151.554688 5.621094 154.050781 8.230469 C 156.285156 10.640625 157.898438 13.542969 158.902344 16.9375 C 159.90625 20.332031 160.40625 24.800781 160.40625 30.339844 L 160.40625 83.839844 L 139.121094 83.839844 L 139.121094 31.15625 C 139.121094 27.296875 138.488281 24.695313 137.222656 23.351563 C 135.953125 22.003906 133.582031 21.332031 130.101563 21.332031 L 97.253906 21.332031 L 97.253906 83.839844 L 75.96875 83.839844 Z M 48.667969 1.605469 L 72.917969 83.839844 L 0 83.839844 L 15.730469 33.269531 L 35.039063 33.269531 L 26.773438 64.113281 L 46.660156 64.113281 L 25.667969 1.605469 "/>
</g>
</g>
</svg>
