<svg xmlns="http://www.w3.org/2000/svg" xmlns:xlink="http://www.w3.org/1999/xlink" width="1080" zoomAndPan="magnify" viewBox="0 0 810 809.999993" height="1080" preserveAspectRatio="xMidYMid meet" version="1.0"><defs><filter x="0%" y="0%" width="100%" height="100%" id="0e8a92a053"><feColorMatrix values="0 0 0 0 1 0 0 0 0 1 0 0 0 0 1 0 0 0 1 0" color-interpolation-filters="sRGB"/></filter><mask id="0b4dc07265"><g filter="url(#0e8a92a053)"><rect x="-81" width="972" fill="#000000" y="-80.999999" height="971.999992" fill-opacity="0.4"/></g></mask><clipPath id="35b60fd8e4"><rect x="0" width="101" y="0" height="344"/></clipPath><mask id="2592014722"><g filter="url(#0e8a92a053)"><rect x="-81" width="972" fill="#000000" y="-80.999999" height="971.999992" fill-opacity="0.2"/></g></mask><clipPath id="cbd8a14a6e"><path d="M 0.441406 2 L 122 2 L 122 391 L 0.441406 391 Z M 0.441406 2 " clip-rule="nonzero"/></clipPath><clipPath id="402793a470"><rect x="0" width="124" y="0" height="393"/></clipPath><mask id="b1aabb8494"><g filter="url(#0e8a92a053)"><rect x="-81" width="972" fill="#000000" y="-80.999999" height="971.999992" fill-opacity="0.2"/></g></mask><clipPath id="a03e9919df"><rect x="0" width="468" y="0" height="536"/></clipPath></defs><path fill="#ffde7a" d="M 274.953125 773.828125 C 274.484375 775.839844 264.695312 805.808594 225.179688 806.886719 C 185.664062 807.980469 173.554688 778.980469 172.734375 774.457031 C 171.910156 769.949219 173.296875 763.910156 174.457031 761.976562 L 272.261719 761.976562 C 275.417969 766.132812 275.402344 771.816406 274.953125 773.828125 Z M 287.574219 732.945312 C 286.015625 735.683594 285.304688 744.28125 292.632812 748.613281 C 299.957031 752.945312 326.542969 751.496094 338.878906 751.898438 C 351.214844 752.300781 362.984375 755.730469 378.539062 756.148438 C 394.09375 756.566406 421.292969 750.011719 426.925781 736.761719 C 432.5625 723.507812 378.652344 713.539062 378.539062 713.847656 C 378.425781 714.167969 287.574219 732.945312 287.574219 732.945312 Z M 287.574219 732.945312 " fill-opacity="1" fill-rule="nonzero"/><path fill="#eddf17" d="M 217.546875 337.144531 L 293.355469 280.316406 C 293.355469 280.316406 325.769531 284.003906 334.386719 318.785156 C 343 353.550781 359.007812 477.15625 364.417969 534.109375 C 369.8125 591.066406 363.53125 627.132812 370.90625 663.589844 C 370.90625 663.589844 280.3125 669.324219 274.226562 668.695312 C 268.140625 668.066406 173.410156 663.269531 173.410156 663.269531 C 173.085938 637.8125 188.804688 614.589844 194.777344 600.371094 C 205.515625 574.851562 212.699219 551.050781 219.042969 496.125 C 225.386719 441.199219 224.082031 395.691406 223.9375 395.789062 Z M 217.546875 337.144531 " fill-opacity="1" fill-rule="nonzero"/><path fill="#545454" d="M 470.96875 644.507812 C 469.40625 616.394531 484.976562 415.402344 500.113281 343.40625 C 515.25 271.414062 590.753906 346.417969 590.753906 346.417969 C 590.753906 346.417969 603.1875 372.699219 605.40625 411.523438 C 607.628906 450.359375 608.933594 504.320312 609.949219 514.367188 C 610.964844 524.417969 619.898438 556.523438 628.613281 575.15625 C 635.101562 589.710938 642.425781 593.882812 647.484375 617.425781 C 647.484375 617.425781 641.945312 639.179688 622.429688 645.84375 C 602.910156 652.511719 560.738281 649.824219 553.445312 650.835938 C 546.132812 651.851562 494.300781 658.792969 488.503906 654.71875 C 482.707031 650.644531 470.933594 644.878906 470.933594 644.878906 " fill-opacity="1" fill-rule="nonzero"/><g mask="url(#0b4dc07265)"><g transform="matrix(1, 0, 0, 1, 497, 310)"><g clip-path="url(#35b60fd8e4)"><path fill="#282520" d="M 60.535156 63.96875 C 27.6875 67.738281 7.992188 49.414062 1.421875 41.925781 C 1.984375 38.929688 2.550781 36.066406 3.097656 33.390625 C 18.234375 -38.601562 93.738281 36.402344 93.738281 36.402344 C 93.738281 36.402344 96.507812 42.25 99.664062 52.503906 C 92.046875 56.980469 79.761719 61.765625 60.535156 63.96875 Z M 59.972656 340.628906 C 59.875 339.789062 59.730469 338.90625 59.519531 337.90625 C 54.835938 316.894531 35.140625 201.871094 41.484375 127.738281 C 31.792969 191.324219 38.8125 321.417969 40.050781 342.929688 C 47.925781 342.011719 54.238281 341.160156 56.460938 340.855469 C 57.234375 340.726562 58.441406 340.660156 59.972656 340.628906 Z M 59.972656 340.628906 " fill-opacity="1" fill-rule="nonzero"/></g></g></g><path fill="#282520" d="M 354.644531 676.183594 C 354.644531 676.183594 327.476562 705.359375 312.695312 702.21875 C 297.914062 699.082031 288.253906 678.4375 288.058594 677.359375 C 287.867188 676.28125 288.75 676.003906 288.75 676.003906 C 288.75 676.003906 281.488281 673.6875 281.007812 671.160156 C 274.355469 678.5 243.679688 678.210938 213.699219 674.863281 C 213.375 675.699219 181.25 671.980469 174.183594 665.070312 C 167.128906 658.164062 199.207031 651.898438 207.789062 651.625 C 207.789062 651.625 236.046875 670.273438 239.894531 668.503906 C 243.746094 666.714844 256.949219 656.84375 256.949219 656.84375 C 272.84375 662.238281 281.007812 665.78125 281.007812 665.78125 C 281.007812 665.78125 285.964844 667.890625 295.738281 664.796875 C 305.515625 661.707031 295.738281 664.796875 295.738281 664.796875 C 295.738281 664.796875 307.558594 675.296875 320.570312 673.574219 C 333.582031 671.851562 346.316406 660.789062 346.316406 660.789062 C 346.316406 660.789062 340.003906 658.066406 346.316406 660.789062 C 352.628906 663.511719 364.480469 658.277344 369.585938 660.789062 C 376.367188 668.921875 354.644531 676.183594 354.644531 676.183594 Z M 574.765625 144.636719 C 571.046875 142.5625 571.753906 137.390625 565.796875 130.984375 C 559.855469 124.574219 553.558594 126.910156 553.558594 126.910156 C 553.558594 126.910156 549.917969 124.253906 542.738281 127.746094 C 535.554688 131.242188 534.507812 136.554688 533.171875 139.355469 C 531.835938 142.160156 530.175781 143.929688 530.175781 143.929688 C 529.613281 147.699219 531.722656 148.96875 531.722656 148.96875 C 531.109375 152.09375 532.996094 153.671875 535.136719 154.25 L 535.136719 153.945312 C 535.136719 153.945312 560.691406 164.621094 561.398438 164.78125 C 562.109375 164.941406 566.972656 163.558594 566.761719 160.980469 C 566.761719 160.980469 570.273438 158.9375 569.644531 156.023438 C 571.398438 156.8125 574.105469 152.980469 573.363281 150.871094 C 575.761719 150.742188 576.054688 144.929688 574.765625 144.636719 Z M 574.765625 144.636719 " fill-opacity="1" fill-rule="nonzero"/><path fill="#eddf17" d="M 183.28125 750.496094 C 183.28125 750.496094 206.546875 733.765625 207 732.945312 C 207.464844 732.140625 202.507812 696.488281 204.066406 691.269531 C 205.628906 686.054688 211.878906 683.203125 221.734375 679.289062 C 231.585938 675.378906 245.113281 681.546875 248.671875 689.613281 C 252.230469 697.679688 240.605469 716.792969 245 719.53125 C 249.398438 722.269531 272.972656 769.015625 272.972656 769.015625 C 272.34375 776.839844 258.703125 783.265625 252.277344 786.386719 C 245.839844 789.511719 236.464844 786.824219 227.207031 786.824219 C 217.949219 786.824219 205.550781 790.253906 202.875 789.046875 C 194.648438 786.40625 178.433594 775.292969 175.132812 764.875 C 175.148438 757.308594 183.28125 750.496094 183.28125 750.496094 Z M 466.78125 202.769531 C 466.863281 214.730469 470.066406 222.476562 467.441406 229.820312 C 467.441406 229.820312 486.683594 258.707031 495.394531 267.855469 C 495.394531 267.855469 486.136719 317.917969 486.894531 340.011719 C 486.894531 340.011719 560.207031 386.644531 607.9375 340.816406 C 609.144531 332.328125 599.242188 322.859375 597.582031 312.523438 C 597.582031 312.523438 631.125 299.320312 635.375 293.152344 C 639.625 286.984375 642.445312 278.660156 642.445312 278.660156 C 636.9375 260.785156 619.933594 232.398438 604.328125 218.855469 C 588.726562 205.3125 570.625 192.769531 570.625 192.769531 L 546.941406 188.277344 C 546.941406 188.277344 542.640625 188.484375 540.515625 188.902344 C 540.515625 188.902344 509.742188 181.207031 492.253906 163.878906 L 489.96875 164.75 C 489.96875 164.75 472.707031 160.144531 465.992188 166.410156 C 459.261719 172.6875 466.765625 202.769531 466.78125 202.769531 M 425.71875 717.9375 C 420.597656 710.335938 420.90625 712.238281 405.351562 708 C 389.792969 703.765625 395.09375 705.472656 376.109375 696.828125 C 357.105469 688.179688 356.011719 675.84375 356.011719 675.84375 C 356.011719 675.84375 355.59375 669.566406 353.5 668.648438 C 351.40625 667.730469 345.160156 669.726562 345.160156 669.726562 C 345.160156 669.726562 338.941406 669.871094 329.730469 670.242188 C 328.589844 670.289062 327.21875 670.515625 325.707031 670.902344 L 331.695312 673.089844 L 318.71875 683.589844 C 327.15625 684.378906 330.007812 691.769531 342.164062 699.820312 C 354.320312 707.871094 361.085938 706.84375 372.566406 712.398438 C 384.046875 717.9375 382.742188 719.386719 378.621094 729.660156 C 375.882812 736.453125 390.96875 738.949219 390.9375 744.828125 C 394.738281 744.875 398.523438 744.714844 402.195312 744.25 C 418.941406 742.058594 430.824219 725.539062 425.71875 717.9375 Z M 425.71875 717.9375 " fill-opacity="1" fill-rule="nonzero"/><path fill="#545454" d="M 262.535156 730.417969 C 266.917969 742.058594 272.617188 756.40625 272.953125 769.015625 C 264.660156 764.101562 249.316406 762.136719 245.757812 761.347656 C 242.199219 760.558594 237.949219 763.636719 235.984375 754.375 C 234.019531 745.117188 233.230469 706.359375 233.230469 700.933594 C 233.230469 695.507812 234.261719 693.945312 237.398438 693.636719 C 240.539062 693.347656 242.503906 695.828125 245.757812 694.105469 C 245.757812 694.105469 246.722656 687.664062 246.757812 687.582031 C 246.789062 687.503906 251.507812 686.988281 251.570312 687.582031 C 251.636719 688.179688 252.808594 698.839844 253.453125 702.445312 C 254.097656 706.070312 258.15625 718.757812 262.535156 730.417969 Z M 215 697.550781 C 214.550781 694.410156 211.460938 693.832031 208.882812 694.074219 C 206.304688 694.3125 205.210938 694.332031 204.664062 694.121094 C 204.132812 693.894531 201.78125 689.46875 199.640625 689.628906 C 199.625 690.078125 200.527344 694.605469 200.703125 695.925781 C 200.878906 697.246094 195.628906 714.457031 186.96875 731.027344 C 178.304688 747.597656 171.394531 758.5 175.117188 764.890625 C 175.117188 764.890625 178.09375 759.53125 185.082031 760.367188 C 192.070312 761.203125 201.265625 766.226562 208.367188 763.28125 C 215.484375 760.335938 213.550781 749.238281 213.828125 739.820312 C 214.082031 730.382812 215.453125 700.691406 215 697.550781 Z M 388.410156 707.164062 C 376.929688 701.625 370.164062 702.640625 358.007812 694.589844 C 345.851562 686.535156 343 679.144531 334.5625 678.355469 L 331.664062 673.089844 L 325.675781 670.902344 C 314.933594 673.542969 296.59375 683.21875 296.59375 683.21875 C 296.59375 683.21875 289.28125 681.5625 288.042969 677.359375 C 288.332031 679.886719 291.085938 687.519531 290.585938 690.660156 C 290.085938 693.800781 282.566406 717.066406 287.558594 732.945312 C 287.59375 733.105469 302.085938 742.332031 313.484375 741.640625 C 324.886719 740.929688 338.1875 739.902344 352.324219 740.996094 C 363.371094 741.847656 377.316406 744.683594 390.890625 744.84375 C 390.9375 738.964844 391.726562 731.238281 394.449219 724.441406 C 398.601562 714.152344 399.890625 712.703125 388.410156 707.164062 Z M 388.410156 707.164062 " fill-opacity="1" fill-rule="nonzero"/><g mask="url(#2592014722)"><g transform="matrix(1, 0, 0, 1, 217, 278)"><g clip-path="url(#402793a470)"><g clip-path="url(#cbd8a14a6e)"><path fill="#282520" d="M 65.566406 390.566406 L 65.566406 388.683594 C 65.566406 387.070312 68.773438 313.289062 74.457031 273.695312 C 80.140625 234.113281 82.1875 221.34375 83.136719 176.917969 C 84.085938 132.492188 84.632812 126.710938 84.632812 126.710938 C 88.691406 147.113281 86.773438 169.558594 92.21875 189.640625 C 94.570312 198.316406 98.367188 206.59375 99.914062 215.453125 C 102.28125 228.945312 99.269531 242.746094 98.804688 256.449219 C 97.964844 280.875 105.164062 304.738281 109.929688 328.714844 C 113.199219 345.140625 115.324219 361.808594 116.097656 378.539062 C 116.242188 381.613281 116.308594 384.753906 116.257812 387.910156 C 97.742188 388.972656 76.96875 390.132812 65.566406 390.566406 Z M 89.160156 73.105469 L 103.441406 43.765625 C 103.441406 43.765625 109.640625 58.289062 111.058594 65.390625 C 111.058594 65.390625 116.242188 63.828125 121.523438 60.898438 C 120.027344 52.65625 118.625 45.792969 117.386719 40.785156 C 108.769531 6.023438 76.355469 2.316406 76.355469 2.316406 L 0.546875 59.144531 L 0.820312 61.589844 L 16.839844 68.402344 C 18.066406 69.625 53.554688 83.988281 89.160156 73.105469 Z M 89.160156 73.105469 " fill-opacity="1" fill-rule="nonzero"/></g></g></g></g><path fill="#ffde7a" d="M 154.679688 393.40625 C 154.761719 386.191406 158.464844 375.566406 167.5 357.835938 C 176.53125 340.105469 182.925781 319.625 193.875 276.210938 C 204.824219 232.800781 220.832031 203.363281 230.765625 195.570312 C 240.703125 187.761719 264.257812 171.125 264.257812 171.125 C 264.257812 171.125 283.324219 164.042969 287.800781 164.332031 C 292.277344 164.621094 294.242188 167.328125 294.242188 167.328125 C 321.3125 159.386719 355.398438 133.929688 355.398438 133.929688 C 357.507812 126.265625 375.722656 98.859375 381.195312 80.582031 C 383.644531 78.683594 391.019531 82.113281 391.019531 82.113281 L 403.015625 89.488281 C 403.015625 89.488281 405.269531 105.796875 406.734375 110.871094 C 408.199219 115.941406 411.113281 125.492188 411.113281 125.492188 C 411.113281 125.492188 404.59375 143.351562 395.140625 163.511719 C 377.734375 203.734375 339.183594 225.28125 339.183594 225.28125 C 350.039062 262.507812 352.597656 314.472656 352.019531 318.804688 C 346.847656 332.234375 329.605469 335.96875 329.605469 335.96875 C 328.027344 330.253906 319.425781 314.632812 319.425781 314.632812 C 319.425781 314.632812 305.722656 342.054688 304.53125 341.847656 C 282.777344 356.273438 239.363281 344.90625 239.363281 344.90625 C 236.03125 354.519531 233.4375 393.324219 223.246094 416.625 Z M 154.679688 393.40625 " fill-opacity="1" fill-rule="nonzero"/><path fill="#eddf17" d="M 445.476562 171.320312 C 431.742188 145.039062 419.085938 99.582031 418.746094 98.101562 C 418.394531 96.605469 411.5 89.488281 411.5 89.488281 L 406.75 110.871094 C 403.722656 96.75 391.035156 82.113281 391.035156 82.113281 C 391.035156 82.113281 395.429688 68.425781 399.441406 63.09375 C 403.449219 57.765625 408.746094 57.476562 408.746094 57.476562 L 412.195312 54.15625 C 412.195312 54.15625 414.996094 56.507812 415.65625 56.265625 C 416.316406 56.027344 419.972656 57.121094 421.195312 58.90625 C 422.402344 60.710938 421 62.113281 421 62.113281 C 422.449219 63.335938 422.242188 65.898438 421 65.558594 C 422.242188 66.558594 421.742188 67.714844 421.742188 67.714844 C 422.980469 68.8125 424.382812 70.9375 424.382812 70.9375 C 428.296875 70.953125 434.125 71.695312 435.414062 74.738281 C 436.703125 77.78125 437.167969 81.886719 440.195312 91.515625 C 443.207031 101.144531 456.089844 116.328125 463.109375 125.636719 C 470.128906 134.945312 474.71875 146.378906 475.847656 149.953125 C 476.988281 153.527344 489.96875 164.765625 489.96875 164.765625 C 489.96875 164.765625 482.191406 167.230469 474.285156 175.796875 C 466.378906 184.363281 466.699219 202.6875 466.78125 202.769531 C 466.78125 202.769531 459.210938 197.597656 445.476562 171.320312 Z M 561.433594 164.78125 C 561.433594 164.78125 558.550781 162.191406 558.757812 157.328125 C 558.757812 157.328125 562.238281 158.246094 563.734375 154.058594 C 565.230469 149.871094 561.320312 144.058594 558.324219 147.90625 C 555.941406 148.90625 553.574219 142.125 551.367188 138.875 C 548.179688 134.1875 543.621094 134.671875 541.675781 137.230469 C 541.464844 137.535156 537.292969 135.121094 534.976562 141.738281 C 534.25 144.800781 533.640625 146.394531 533.589844 147.761719 C 533.542969 149.148438 534.429688 150.886719 534.429688 150.886719 C 534.429688 150.886719 533.234375 153.863281 534.203125 157.90625 C 535.167969 161.949219 539.917969 169.597656 545.699219 167.953125 C 546.277344 174.71875 545.539062 189.804688 541.078125 196.957031 C 538.5 201.078125 534.71875 207.808594 540.464844 211.429688 C 546.214844 215.054688 555.988281 208.96875 560.773438 203.652344 C 565.554688 198.339844 570.609375 192.785156 570.609375 192.785156 C 567.613281 190.5625 562.414062 175.765625 561.433594 164.78125 Z M 561.433594 164.78125 " fill-opacity="1" fill-rule="nonzero"/><path fill="#eddf17" d="M 393.949219 32.066406 C 395.527344 33.628906 395.496094 36.011719 395.042969 37.316406 C 393.980469 40.292969 390.777344 40.324219 390.085938 39.328125 C 389.390625 38.328125 389.90625 37.023438 389.972656 37.28125 C 389.921875 37.828125 390.777344 39.117188 392.066406 38.488281 C 393.160156 37.941406 393.722656 35.785156 392.582031 34.269531 C 390.792969 31.9375 383.820312 32.339844 379.117188 30.101562 C 374.578125 27.925781 370.132812 24.804688 369.84375 20.035156 C 369.425781 15.578125 371.46875 11.777344 375.011719 9.503906 C 379.085938 6.878906 384.402344 7.285156 387.136719 8.84375 C 389.777344 10.390625 390.535156 13.53125 389.84375 16.203125 C 389.117188 18.730469 387.058594 19.890625 385.0625 19.683594 C 383.046875 19.472656 382.113281 17.171875 382.789062 15.867188 C 383.773438 13.964844 385.445312 14.382812 385.285156 14.382812 C 384.769531 14.367188 383.964844 15.464844 384.0625 16.382812 C 384.160156 17.28125 385.625 17.734375 386.363281 16.6875 C 386.382812 16.671875 386.398438 16.65625 386.414062 16.640625 C 386.589844 16.382812 386.734375 16.042969 386.816406 15.738281 C 387.234375 14.289062 386.929688 12.292969 385.738281 11.582031 C 383.886719 10.519531 379.941406 10.632812 377.042969 12.484375 C 375.285156 13.613281 373.289062 15.816406 373.675781 19.988281 C 373.980469 24.964844 381.195312 26.945312 386.605469 28.667969 C 389.328125 29.503906 392.050781 30.179688 393.949219 32.066406 Z M 408.539062 44.851562 L 408.746094 57.476562 C 410.519531 57.234375 412.355469 57.441406 414.175781 58.28125 C 414.207031 57.023438 414.785156 56.414062 415.640625 56.265625 L 415.816406 44.851562 C 421.695312 44.109375 426.25 40.085938 429.421875 33.59375 C 428.890625 34.929688 428.988281 36.398438 429.308594 37.316406 C 430.375 40.292969 433.578125 40.324219 434.269531 39.328125 C 434.960938 38.328125 434.445312 37.023438 434.382812 37.28125 C 434.429688 37.828125 433.578125 39.117188 432.289062 38.488281 C 431.195312 37.941406 430.628906 35.785156 431.773438 34.269531 C 433.5625 31.9375 440.535156 32.339844 445.234375 30.101562 C 449.777344 27.925781 454.222656 24.804688 454.511719 20.035156 C 454.929688 15.578125 452.882812 11.777344 449.34375 9.503906 C 445.269531 6.878906 439.953125 7.285156 437.214844 8.84375 C 434.574219 10.390625 433.820312 13.53125 434.511719 16.203125 C 435.234375 18.730469 437.296875 19.890625 439.292969 19.683594 C 441.308594 19.472656 442.242188 17.171875 441.5625 15.867188 C 440.582031 13.964844 438.90625 14.382812 439.070312 14.382812 C 439.582031 14.367188 440.390625 15.464844 440.292969 16.382812 C 440.195312 17.28125 438.730469 17.734375 437.988281 16.6875 C 437.972656 16.671875 437.957031 16.65625 437.941406 16.640625 C 437.765625 16.382812 437.621094 16.042969 437.539062 15.738281 C 437.121094 14.289062 437.425781 12.292969 438.617188 11.582031 C 440.46875 10.519531 444.414062 10.632812 447.3125 12.484375 C 449.066406 13.613281 451.066406 15.816406 450.679688 19.988281 C 450.371094 24.964844 443.160156 26.945312 437.75 28.667969 C 435.027344 29.535156 432.304688 30.214844 430.40625 32.097656 C 430.148438 32.339844 429.953125 32.613281 429.777344 32.902344 C 433.015625 25.867188 434.671875 16.089844 434.671875 4.464844 L 389.648438 4.464844 C 389.664062 27.492188 396.945312 43.402344 408.539062 44.851562 Z M 264.257812 171.09375 C 266.917969 178.035156 301.808594 206.3125 301.808594 206.3125 C 301.808594 206.3125 297.976562 185.121094 292.746094 173.75 C 287.527344 162.382812 264.257812 171.09375 264.257812 171.09375 Z M 652.894531 748.320312 C 647.304688 734.441406 631.125 712.671875 629.496094 692.898438 C 629.949219 688.019531 632.023438 668.9375 631.914062 662.929688 C 628.773438 662.042969 577.292969 666.390625 577.292969 666.390625 C 576.230469 672.269531 580.367188 684.75 580.882812 690.078125 C 582.109375 697.664062 571.351562 733.332031 566.183594 746.777344 C 563.429688 753.957031 561.964844 761.6875 561.898438 769.351562 C 565.136719 781.414062 581.335938 800.09375 607.695312 798.335938 C 638.675781 796.277344 655.292969 775.132812 656.257812 762.765625 C 655.710938 757.773438 654.648438 752.6875 652.894531 748.320312 Z M 425.1875 82.160156 C 425.285156 79.34375 426.378906 75.316406 426.378906 75.316406 C 426.378906 75.316406 425.089844 76.589844 423.835938 78.859375 C 422.578125 81.128906 418.925781 80.886719 418.652344 78.859375 C 419.035156 76.25 421.292969 73.351562 423.59375 71.484375 L 415.398438 71.484375 L 415.429688 69.859375 C 414.558594 68.941406 414.191406 67.3125 415.171875 66.667969 C 414.867188 66.347656 413.207031 64.867188 415.109375 62.902344 C 413.675781 63.804688 410.792969 62.804688 408.828125 62.980469 L 408.972656 71.484375 L 397.796875 71.484375 L 395.898438 78.085938 L 395.898438 82.160156 Z M 543.507812 689.402344 C 543.605469 684.605469 545.683594 664.894531 545.183594 664.6875 L 488.503906 662.207031 L 479.808594 664.894531 C 479.808594 664.894531 483.09375 674.425781 483.011719 681.0625 C 483.011719 681.0625 475.203125 694.296875 450.195312 704.796875 C 434.269531 710.707031 422.355469 710.964844 415.882812 718.789062 C 413.128906 722.125 412.082031 726.246094 411.953125 730.335938 C 415.1875 735.8125 420.613281 747.5 434.625 749.289062 C 458.472656 752.347656 490.128906 744.136719 509.824219 745.859375 C 527.988281 747.46875 540.371094 746.761719 547.875 735.890625 C 548.484375 727.648438 547.40625 718.066406 546.3125 711.625 C 544.410156 700.320312 543.414062 694.203125 543.507812 689.402344 Z M 543.507812 689.402344 " fill-opacity="1" fill-rule="nonzero"/><path fill="#282520" d="M 251.457031 688.113281 C 250.445312 691.125 245.855469 693.847656 245.757812 694.105469 C 245.660156 694.363281 245.453125 693.300781 245.113281 692.65625 C 245.113281 692.65625 230.863281 678.308594 220.476562 680.257812 C 210.089844 682.207031 205.003906 692.222656 205.003906 692.222656 L 204.664062 694.089844 C 204.664062 694.089844 199.222656 692.027344 199.640625 689.597656 C 199.960938 687.664062 206.210938 685.394531 206.210938 685.394531 C 206.210938 685.394531 212.214844 673.398438 218.464844 673.089844 C 224.710938 672.785156 246.433594 683.203125 246.433594 683.203125 C 246.433594 683.203125 252.472656 685.105469 251.457031 688.113281 Z M 209.929688 399.910156 C 209.929688 399.910156 194.230469 403.824219 194.230469 403.824219 C 194.230469 403.824219 189.316406 389.574219 177.273438 386.707031 C 165.230469 383.839844 152.363281 388.171875 155.035156 395.789062 C 157.707031 403.40625 177.273438 411.375 177.273438 411.375 L 207.433594 419.71875 C 229.929688 422.730469 226.917969 411.359375 209.929688 399.910156 Z M 622.445312 658.613281 C 612.460938 656.214844 585.230469 662.238281 585.230469 662.238281 C 573.21875 665.476562 576.375 667.550781 584.730469 670.933594 L 624.441406 668.839844 C 635.019531 663.1875 634.390625 661.480469 622.445312 658.613281 Z M 612.574219 313.714844 L 640.609375 289.367188 C 644.890625 279.140625 643.472656 276.96875 637.789062 278.402344 L 610.253906 308.578125 L 605.988281 304.730469 C 605.988281 304.730469 603.121094 305.742188 598.597656 306.46875 C 593.105469 307.355469 591.238281 309.382812 592.800781 311.074219 C 594.363281 312.75 605.183594 316.773438 612.574219 313.714844 Z M 638.917969 620.144531 C 633.523438 625.78125 630.527344 631.835938 619.996094 636.167969 C 619.996094 636.167969 611.640625 654.796875 602.542969 655.234375 C 593.445312 655.667969 575.554688 642.046875 575.554688 642.046875 C 560.222656 641.015625 556.535156 647.890625 556.535156 647.890625 C 555.761719 645.3125 549.339844 644.78125 541.65625 648.375 C 541.65625 648.375 530.835938 659.679688 521.804688 662.140625 C 519.96875 662.191406 518.066406 662.222656 516.152344 662.238281 C 507.054688 659.695312 497.535156 643.976562 489.648438 642.542969 C 481.417969 641.0625 469.261719 639.695312 471.175781 645.441406 C 473.09375 651.191406 482.253906 656.359375 496.023438 660.773438 L 511.898438 662.238281 C 504.734375 662.191406 497.9375 661.804688 494.203125 660.773438 C 483.832031 657.890625 478.261719 665.441406 480.210938 665.054688 C 482.160156 664.667969 491.226562 666.085938 493.65625 666.796875 L 539.113281 668.117188 C 545.828125 667.34375 546.988281 663.960938 542.625 662.285156 C 551.351562 659.082031 557.292969 653.332031 557.292969 653.332031 C 569.851562 660.675781 609.289062 660.289062 619.820312 656.101562 C 630.335938 651.917969 643.957031 634.414062 646.824219 624.429688 C 650.109375 612.851562 644.296875 614.511719 638.917969 620.144531 Z M 299.636719 113.496094 C 299.332031 112.335938 299.363281 111.0625 298.816406 109.984375 C 297.496094 107.34375 293.582031 107.136719 291.84375 104.753906 C 291.425781 104.171875 291.152344 103.496094 290.699219 102.964844 C 289.863281 101.980469 288.476562 101.613281 287.1875 101.675781 C 285.902344 101.742188 284.660156 102.191406 283.4375 102.625 C 282.132812 103.09375 280.75 103.542969 279.378906 103.320312 C 278.816406 103.222656 278.300781 103.027344 277.753906 102.882812 C 275.386719 102.304688 272.746094 103.0625 271.039062 104.800781 C 270.167969 105.6875 269.523438 106.8125 268.511719 107.523438 C 267.738281 108.054688 266.789062 108.292969 266.0625 108.890625 C 264.855469 109.871094 264.53125 111.578125 264.515625 113.140625 C 264.515625 114.703125 264.742188 116.296875 264.308594 117.796875 C 263.953125 119.035156 263.164062 120.179688 263.117188 121.464844 C 263.066406 123.042969 264.164062 124.429688 264.355469 126.007812 C 264.550781 127.554688 263.824219 129.179688 264.292969 130.660156 C 264.839844 132.417969 266.769531 133.316406 267.785156 134.847656 C 268.605469 136.121094 268.785156 137.792969 269.878906 138.839844 C 270.828125 139.742188 272.390625 139.886719 273.519531 139.195312 C 275.046875 140.113281 276.769531 141.449219 278.300781 142.382812 C 278.929688 142.753906 279.558594 143.140625 280.28125 143.253906 C 280.972656 143.367188 281.683594 143.203125 282.34375 142.949219 C 284.484375 142.078125 285.996094 140.160156 287.464844 138.375 C 290.894531 134.1875 294.660156 130.257812 298.703125 126.667969 L 298.929688 125.394531 C 301.085938 122.867188 301.761719 119.164062 300.636719 116.039062 C 300.3125 115.203125 299.878906 114.382812 299.636719 113.496094 Z M 299.636719 113.496094 " fill-opacity="1" fill-rule="nonzero"/><path fill="#ffde7a" d="M 539.453125 255.230469 L 546.003906 255.746094 L 547.019531 285.890625 L 529.339844 284.972656 L 528.808594 254.394531 L 535.859375 254.941406 C 534.796875 247.148438 530.03125 206.648438 543.929688 188.792969 C 544.007812 188.679688 544.105469 188.566406 544.203125 188.453125 C 544.203125 188.453125 543.363281 192.945312 541.929688 195.359375 C 536.34375 204.105469 535.539062 233.492188 537.761719 246.550781 C 537.875 247.128906 547.019531 208.613281 569.0625 190.835938 L 571.300781 193.21875 C 571.300781 193.234375 551.542969 207.324219 539.453125 255.230469 Z M 237.851562 739.53125 C 236.191406 738.707031 214.566406 739.113281 210.992188 740.769531 C 207.417969 742.429688 209.203125 746.066406 210.992188 746.003906 C 210.992188 746.003906 234.824219 745.183594 237.851562 746.003906 C 239.785156 745.039062 239.511719 740.351562 237.851562 739.53125 Z M 212.652344 725.199219 C 215.050781 724.988281 235.515625 725.472656 236.902344 725.199219 C 238.285156 724.925781 238.558594 719.691406 236.902344 718.453125 C 235.242188 717.210938 214.726562 718.453125 212.652344 719.273438 C 210.574219 720.109375 210.929688 725.359375 212.652344 725.199219 Z M 213.199219 706.617188 C 216.03125 706.921875 233.308594 706.90625 235.371094 706.617188 C 237.433594 706.328125 237.578125 701.640625 235.917969 701.238281 C 234.261719 700.820312 216.773438 702.574219 214.019531 702.460938 C 211.265625 702.347656 210.460938 706.328125 213.199219 706.617188 Z M 360.550781 685.394531 C 359.488281 686.488281 352.664062 689.773438 350.457031 690.691406 C 347.558594 691.914062 349.425781 694.925781 353.660156 694.105469 C 357.894531 693.285156 364.257812 689.324219 364 688.050781 C 363.742188 686.777344 361.617188 684.296875 360.550781 685.394531 Z M 387.78125 701.238281 C 387.476562 701.542969 384.625 703.832031 381.292969 706.617188 C 379.8125 707.855469 383.015625 709.097656 385.785156 708.097656 C 388.554688 707.101562 392.644531 704.039062 392.597656 703.394531 C 392.515625 702.785156 388.089844 700.933594 387.78125 701.238281 Z M 373.289062 694.25 C 372.46875 694.699219 367.234375 699.597656 364.386719 701.558594 C 363.160156 702.414062 363.371094 704.957031 368.023438 703.71875 C 372.679688 702.476562 377.445312 697.453125 377.523438 696.699219 C 377.605469 695.941406 374.128906 693.800781 373.289062 694.25 Z M 429.550781 9.296875 C 425.703125 10.246094 417.683594 10.664062 417.476562 11.664062 C 417.089844 13.484375 428.394531 11.40625 429.488281 13.433594 C 430.339844 14.996094 428.359375 24.480469 429.035156 24.675781 C 429.730469 24.867188 432.402344 19.957031 432.789062 15.238281 C 433.175781 10.503906 434.171875 8.152344 429.550781 9.296875 Z M 429.550781 9.296875 " fill-opacity="1" fill-rule="nonzero"/><path fill="#eddf17" d="M 614.570312 805.742188 C 588.628906 809.898438 566.441406 792.425781 565.054688 788.964844 C 562.847656 782.75 561.851562 776.082031 561.898438 769.382812 C 565.136719 781.445312 582.734375 793.957031 609.078125 791.929688 C 635.472656 789.898438 655.292969 775.164062 656.277344 762.816406 C 657.515625 773.8125 656.371094 784.441406 654.9375 786.050781 C 652.863281 788.402344 640.511719 801.574219 614.570312 805.742188 Z M 502.480469 740.851562 C 482.785156 739.113281 459.839844 747.695312 435.992188 744.632812 C 421.984375 742.832031 415.171875 735.828125 411.953125 730.335938 C 411.773438 735.859375 413.257812 741.316406 414.496094 744.632812 C 416.652344 750.414062 437.199219 760.609375 464.222656 755.035156 C 491.257812 749.480469 505.925781 750.253906 510.707031 751.171875 C 515.492188 752.105469 530.464844 756.277344 542.898438 750.398438 C 545.988281 747.613281 547.40625 742.121094 547.855469 735.890625 C 539.257812 746.40625 520.660156 742.460938 502.480469 740.851562 Z M 522.09375 652.898438 C 511.578125 652.429688 496.007812 643.332031 489.613281 642.5625 L 493.625 666.8125 C 493.625 666.8125 506.8125 672.253906 518.597656 671.578125 C 530.386719 670.886719 531.980469 668.277344 539.082031 668.148438 L 541.640625 648.40625 C 541.640625 648.390625 532.625 653.367188 522.09375 652.898438 Z M 619.980469 636.167969 L 624.425781 668.839844 C 602.894531 679.789062 584.714844 670.933594 584.714844 670.933594 L 575.539062 642.0625 C 575.539062 642.0625 585.761719 644.15625 597.132812 643.140625 C 607.386719 642.222656 619.980469 636.167969 619.980469 636.167969 Z M 205.179688 439.316406 C 202.28125 440.828125 195.164062 438.171875 195.164062 438.171875 C 189.914062 439.25 183.359375 432.179688 183.359375 432.179688 C 182.023438 432.003906 174.390625 427.785156 172.394531 420.265625 C 168 404.164062 177.273438 386.691406 177.273438 386.691406 C 192.265625 390.152344 209.929688 399.894531 209.929688 399.894531 C 209.929688 399.894531 212.085938 408.703125 211.925781 412.519531 C 211.78125 416.335938 211.410156 426.351562 210.027344 429.78125 C 208.640625 433.210938 206.742188 432.472656 206.742188 432.472656 C 211.605469 434.582031 212.554688 437.414062 211.589844 438.636719 C 210.621094 439.863281 205.179688 439.316406 205.179688 439.316406 Z M 256.964844 656.84375 C 256.707031 656.777344 245.113281 692.671875 245.113281 692.671875 C 241.070312 685.730469 212.730469 685.25 205.003906 692.253906 C 205.003906 692.253906 207.675781 652.867188 207.789062 651.640625 C 223.972656 649.789062 257.222656 656.90625 256.964844 656.84375 Z M 637.789062 278.386719 C 627.953125 281.234375 613.8125 302.992188 605.988281 304.699219 L 620.09375 336.03125 C 620.09375 336.03125 615.601562 353.277344 617 371.8125 C 618.402344 390.363281 619.433594 400.957031 617.226562 405.707031 C 614.101562 411.90625 609.351562 418.125 608.355469 423.679688 C 607.355469 429.21875 607.644531 438.847656 611.6875 441.148438 C 611.6875 441.148438 606.101562 444.726562 609.417969 447.992188 C 610.125 448.332031 612.429688 446.945312 612.429688 446.945312 C 612.429688 446.945312 612.378906 449.089844 613.605469 449.347656 C 614.8125 449.605469 618.675781 448.894531 618.675781 448.894531 C 618.675781 448.894531 619.402344 450.972656 623.585938 449.652344 C 627.773438 448.347656 632.765625 444.613281 632.765625 444.613281 C 632.765625 444.613281 635.019531 445.402344 639.207031 439.605469 C 643.394531 433.808594 645.488281 415.578125 646.40625 409.410156 C 647.339844 403.246094 654.921875 351.25 655.632812 338.140625 C 656.355469 325.050781 637.789062 278.386719 637.789062 278.386719 Z M 618.097656 433.695312 C 618 434.386719 614.988281 438.78125 614.988281 438.78125 C 616.164062 437.1875 615.054688 434.015625 615.148438 431.972656 C 615.246094 429.925781 617 427.367188 617 427.367188 C 617 427.367188 618.191406 433.003906 618.097656 433.695312 Z M 415.832031 44.851562 L 415.800781 46.960938 C 414.382812 47.21875 411.277344 47.605469 408.570312 46.734375 L 408.539062 44.851562 C 412.660156 45.703125 415.832031 44.851562 415.832031 44.851562 Z M 288.894531 150.804688 C 289.152344 162.542969 292.746094 173.75 292.746094 173.75 C 292.746094 173.75 290.796875 179.710938 288.878906 180.949219 C 288.878906 180.949219 268.527344 177.519531 264.257812 171.09375 C 264.257812 171.09375 272.054688 162.996094 273.632812 139.597656 C 274.195312 136.910156 276.640625 137.570312 275.917969 133.929688 C 275.917969 133.929688 271.039062 132.625 271.054688 127.472656 C 271.070312 122.304688 275.257812 122.738281 276.53125 124.316406 C 277.800781 125.878906 279.460938 122.898438 279.847656 120.824219 C 280.21875 118.746094 283.195312 120.902344 284.726562 117.585938 C 286.253906 114.253906 288.734375 113.078125 291.054688 114.171875 C 293.371094 115.265625 294.484375 112.222656 297.300781 114.476562 C 297.300781 114.476562 299.71875 120.789062 299.976562 123.078125 C 300.183594 124.878906 299.71875 126.007812 299.71875 126.007812 C 299.203125 127.199219 300.34375 128.777344 299.976562 131.515625 C 299.828125 132.527344 299.492188 134.300781 298.785156 136.214844 C 297.382812 140 293.824219 141.917969 289.1875 144.300781 C 288.929688 146.265625 288.847656 148.488281 288.894531 150.804688 Z M 533.671875 261.027344 L 541.753906 261.589844 L 541.753906 269.160156 L 533.671875 268.707031 Z M 346.335938 660.789062 L 345.125 669.726562 C 345.125 669.726562 337.671875 671.417969 334.5625 678.355469 C 326.578125 674.105469 311.777344 688.757812 296.59375 683.21875 C 296.59375 683.21875 295.820312 665.667969 295.757812 664.8125 C 295.757812 664.796875 326.335938 654.894531 346.335938 660.789062 Z M 346.335938 660.789062 " fill-opacity="1" fill-rule="nonzero"/><g mask="url(#b1aabb8494)"><g transform="matrix(1, 0, 0, 1, 174, 138)"><g clip-path="url(#a03e9919df)"><path fill="#282520" d="M 432.777344 168.453125 L 431.988281 166.714844 C 439.8125 164.992188 453.953125 143.253906 463.789062 140.402344 C 463.789062 140.402344 464.5 142.171875 465.625 145.105469 C 456.335938 148.597656 450.472656 160.417969 432.777344 168.453125 Z M 122.140625 47.183594 C 122.046875 46.765625 115.363281 42.546875 114.894531 42.949219 C 114.429688 43.351562 110.789062 52.320312 110.402344 52.625 C 109.984375 54.285156 115.316406 44.996094 116.085938 45.492188 C 116.859375 45.992188 122.238281 47.601562 122.140625 47.183594 Z M 65.398438 206.890625 C 65.398438 206.890625 68.714844 207.757812 73.949219 208.707031 C 74.042969 207.339844 74.222656 205.957031 74.542969 204.601562 C 75.1875 201.816406 76.347656 199.144531 76.75 196.308594 C 77.199219 193.167969 76.699219 189.886719 77.652344 186.859375 C 78.261719 184.878906 78.40625 181.0625 78.90625 179.046875 C 79.808594 175.441406 79.390625 173.75 79.117188 170.046875 C 78.425781 160.835938 85.15625 151.527344 84.445312 142.300781 C 83.722656 144.910156 70.855469 179.03125 65.398438 206.890625 Z M 409.636719 149.160156 C 410.234375 154.167969 411.132812 159.128906 412.375 164.007812 C 413.582031 168.789062 415.097656 173.558594 415.355469 178.5 C 415.515625 181.703125 415.144531 184.957031 415.933594 188.066406 C 416.820312 191.609375 419.121094 194.585938 420.601562 197.9375 C 421.761719 200.578125 422.40625 203.410156 423.035156 206.230469 C 423.371094 207.757812 423.710938 209.273438 424.050781 210.800781 C 427.429688 208.53125 430.746094 205.890625 433.9375 202.832031 C 435.144531 194.34375 425.242188 184.878906 423.582031 174.539062 C 423.582031 174.539062 424.324219 174.25 425.59375 173.734375 C 422.488281 172.960938 418.816406 173.074219 418.816406 173.074219 C 418.605469 170.433594 409.78125 128.597656 407.15625 123.945312 C 407.59375 129.46875 408.398438 134.863281 408.832031 140.371094 C 409.058594 143.300781 409.28125 146.230469 409.636719 149.160156 Z M 35.929688 261.910156 C 35.929688 261.910156 18.265625 252.167969 3.273438 248.707031 C 3.273438 248.707031 2.324219 250.511719 1.164062 253.472656 C 8.25 254.277344 23.628906 257.082031 36.992188 266.855469 C 36.476562 264.148438 35.929688 261.910156 35.929688 261.910156 Z M 33.804688 513.625 C 33.773438 513.949219 33.578125 516.796875 33.289062 520.839844 C 38.34375 519.117188 47.183594 516.894531 56.992188 516.894531 C 66.445312 516.894531 75.558594 520.648438 81.289062 523.59375 C 82.257812 520.695312 82.917969 518.828125 82.980469 518.84375 C 83.222656 518.90625 49.972656 511.789062 33.804688 513.625 Z M 115.1875 6.300781 C 111.691406 7.265625 105.523438 3.273438 103.464844 1.871094 C 101.59375 0.597656 106.105469 9.390625 114.914062 12.804688 C 114.847656 10.488281 114.929688 8.265625 115.1875 6.300781 Z M 121.757812 526.796875 C 121.789062 527.152344 121.933594 530.355469 122.09375 533.980469 C 129.886719 531.355469 151.480469 525.238281 171.820312 526.636719 L 172.335938 522.773438 C 152.335938 516.894531 121.757812 526.796875 121.757812 526.796875 Z M 348.09375 514.898438 C 337.578125 514.429688 322.007812 505.332031 315.613281 504.5625 L 316.917969 512.417969 C 323.8125 514.542969 335.195312 517.25 346.757812 517.25 C 355.871094 517.25 362.667969 515.476562 367.222656 513.675781 L 367.640625 510.390625 C 367.640625 510.390625 358.625 515.367188 348.09375 514.898438 Z M 423.132812 505.140625 C 411.761719 506.15625 401.539062 504.0625 401.539062 504.0625 L 402.277344 506.378906 C 406.933594 507.492188 419.621094 510.117188 430.183594 508.632812 C 437.734375 507.570312 443.179688 504.320312 446.480469 501.710938 L 445.980469 498.167969 C 445.980469 498.167969 433.386719 504.222656 423.132812 505.140625 Z M 382.472656 26.394531 C 380.941406 26.703125 377.464844 29.132812 371.699219 29.921875 C 371.925781 32.464844 371.957031 36.1875 371.667969 40.226562 C 381.378906 38.425781 383.890625 26.105469 382.472656 26.394531 Z M 330.816406 94.089844 C 330.863281 92.046875 319.300781 112.09375 314.292969 121.304688 C 316.949219 124.78125 319.429688 127.808594 321.378906 129.855469 C 322.78125 121.660156 330.75 96.746094 330.816406 94.089844 Z M 314.199219 25.1875 C 310.234375 27.089844 302.714844 31.195312 297.707031 37.199219 C 292.828125 43.0625 288.820312 52.691406 286.839844 58.34375 C 290.71875 63.367188 292.765625 64.769531 292.765625 64.769531 C 292.683594 64.6875 292.363281 46.347656 300.269531 37.796875 C 308.175781 29.246094 315.953125 26.765625 315.953125 26.765625 C 315.953125 26.765625 315.261719 26.15625 314.199219 25.1875 Z M 314.199219 25.1875 " fill-opacity="1" fill-rule="nonzero"/></g></g></g><path fill="#282520" d="M 412.195312 8.683594 C 399.761719 8.683594 389.683594 6.785156 389.683594 4.433594 C 389.683594 2.082031 399.761719 0.183594 412.195312 0.183594 C 424.625 0.183594 434.703125 2.082031 434.703125 4.433594 C 434.703125 6.785156 424.625 8.683594 412.195312 8.683594 Z M 284.855469 124.21875 C 286.09375 123.65625 289.171875 123.0625 290.894531 123.59375 C 291.296875 123.59375 291.84375 122.640625 291.503906 122.289062 C 290.894531 121.628906 286.753906 122.207031 285.0625 123.335938 C 283.886719 124.1875 284.402344 124.429688 284.855469 124.21875 Z M 288.621094 128.601562 C 289.394531 128.988281 290.105469 127.296875 290.265625 126.199219 C 290.363281 126.234375 290.441406 126.28125 290.554688 126.3125 C 290.84375 126.441406 291.003906 126.492188 291.3125 126.441406 C 291.34375 126.441406 291.359375 126.410156 291.359375 126.378906 C 291.167969 123.945312 285.789062 125.007812 286.09375 127.246094 C 286.09375 127.246094 286.109375 127.261719 286.109375 127.246094 C 286.738281 126.859375 287.285156 126.425781 287.960938 126.152344 C 287.914062 126.894531 287.960938 128.261719 288.621094 128.601562 Z M 288.671875 180.417969 C 287.429688 182.671875 285.722656 185.105469 285.144531 187.632812 C 285.113281 187.746094 285.273438 187.855469 285.355469 187.761719 C 287.011719 185.941406 288.042969 183.332031 289.136719 181.109375 C 290.78125 182.09375 292.488281 182.996094 294.195312 183.847656 C 294.226562 183.863281 294.257812 183.816406 294.226562 183.800781 C 292.601562 182.542969 290.875 181.417969 289.152344 180.304688 C 288.992188 180.175781 288.75 180.257812 288.671875 180.417969 Z M 292.601562 134.011719 C 292.601562 134.011719 293.164062 134.492188 294.03125 134.429688 C 294.242188 134.21875 294.613281 133.914062 294.773438 133.65625 C 295.113281 133.140625 295.113281 132.0625 294.949219 131.449219 C 294.820312 130.917969 294.5 130.4375 294.371094 129.886719 C 294.128906 128.875 293.9375 127.714844 294.5625 126.828125 C 294.613281 126.765625 294.691406 126.78125 294.726562 126.84375 C 295.144531 127.875 295 129.066406 295.351562 130.144531 C 295.609375 130.902344 296.046875 131.660156 296.109375 132.464844 C 296.160156 133.09375 295.949219 133.589844 295.5625 133.945312 C 296.382812 134.089844 298.992188 134.6875 298.765625 136.183594 C 297.367188 139.96875 294.582031 144.269531 289.1875 144.269531 C 287.832031 144.636719 286.09375 144.269531 284.355469 143.609375 C 285.320312 141.5625 287.6875 135.265625 288.621094 134.042969 C 289.734375 132.640625 292.601562 134.011719 292.601562 134.011719 Z M 290.472656 136.152344 C 289.960938 136.796875 288.945312 139.871094 288.945312 139.871094 C 289.136719 140.273438 293.148438 140.453125 293.855469 140.144531 C 294.5625 139.839844 295.804688 137.214844 295.335938 136.570312 C 294.886719 135.910156 290.988281 135.507812 290.472656 136.152344 Z M 276.996094 125.25 C 276.882812 125.265625 276.789062 125.378906 276.820312 125.507812 C 276.898438 125.75 276.949219 125.863281 277.191406 125.960938 C 277.414062 126.039062 277.625 126.054688 277.867188 126.007812 C 278.253906 125.941406 278.703125 125.667969 278.800781 125.25 C 278.832031 125.136719 278.71875 125.058594 278.621094 125.074219 C 278.460938 125.089844 278.300781 125.136719 278.125 125.171875 C 278.800781 124.816406 279.265625 123.976562 279.25 123.15625 C 279.25 123.125 279.203125 123.09375 279.171875 123.125 C 278.527344 123.867188 277.800781 124.945312 276.675781 124.878906 C 276.546875 124.878906 276.53125 125.042969 276.609375 125.105469 C 276.753906 125.171875 276.867188 125.203125 276.996094 125.25 Z M 177.660156 425.03125 C 177.628906 426.367188 178.59375 427.398438 179.429688 428.363281 C 180.71875 429.878906 182.023438 431.472656 183.539062 432.761719 C 183.617188 432.824219 183.746094 432.746094 183.683594 432.648438 C 182.007812 429.910156 179.65625 427.609375 177.835938 424.984375 C 177.789062 424.902344 177.660156 424.917969 177.660156 425.03125 Z M 290.667969 137.328125 C 290.730469 138.164062 291.714844 138.632812 292.488281 138.597656 C 293.339844 138.550781 294.082031 137.84375 294.242188 137.003906 C 294.242188 136.972656 294.210938 136.957031 294.195312 136.988281 C 293.757812 137.617188 293.164062 138.003906 292.375 137.972656 C 291.730469 137.957031 291.296875 137.554688 290.765625 137.261719 C 290.730469 137.246094 290.667969 137.261719 290.667969 137.328125 Z M 198.640625 435.015625 C 199.027344 435 199.382812 434.902344 199.753906 434.628906 C 200.140625 434.339844 200.492188 433.855469 200.621094 433.390625 C 200.636719 433.324219 200.558594 433.277344 200.507812 433.324219 C 200.171875 433.679688 199.898438 433.921875 199.460938 434.128906 C 199.078125 434.324219 198.609375 434.5 198.175781 434.597656 C 197.789062 434.242188 197.402344 433.871094 197.03125 433.46875 C 194.648438 430.859375 193.3125 427.59375 191.058594 424.933594 C 190.976562 424.839844 190.800781 424.933594 190.847656 425.0625 C 192.683594 431.070312 198.882812 438.6875 205.644531 439.007812 C 205.710938 439.007812 205.710938 438.929688 205.664062 438.910156 C 203.003906 437.945312 200.703125 436.769531 198.640625 435.015625 Z M 276.769531 131.5 C 276.867188 131.464844 276.914062 131.304688 276.804688 131.257812 C 276.03125 130.886719 275.242188 130.5625 274.613281 129.953125 C 274.082031 129.4375 273.855469 128.664062 273.324219 128.179688 C 273.292969 128.148438 273.226562 128.148438 273.195312 128.199219 C 272.695312 129.019531 273.390625 130.144531 273.984375 130.742188 C 274.695312 131.449219 275.789062 131.851562 276.769531 131.5 Z M 277.671875 126.25 C 277.558594 126.214844 277.449219 126.183594 277.335938 126.152344 C 277.238281 126.121094 277.191406 126.152344 277.109375 126.152344 C 277.0625 126.152344 277.027344 126.199219 277.042969 126.234375 C 277.042969 126.25 277.042969 126.25 277.0625 126.265625 C 277.042969 126.363281 277.078125 126.425781 277.15625 126.492188 C 277.398438 126.667969 277.609375 126.714844 277.914062 126.683594 C 278.140625 126.652344 278.363281 126.554688 278.527344 126.394531 C 278.558594 126.363281 278.527344 126.3125 278.476562 126.3125 C 278.171875 126.363281 277.960938 126.328125 277.671875 126.25 Z M 610.078125 689.015625 C 610.175781 688.96875 610.109375 688.824219 610.011719 688.855469 C 605.875 690.320312 601.058594 691.382812 597.242188 693.523438 C 597.226562 693.542969 597.226562 693.558594 597.261719 693.558594 C 601.625 693.378906 606.277344 691.046875 610.078125 689.015625 Z M 584.667969 691.625 C 584.425781 691.464844 584.121094 691.835938 584.34375 692.027344 C 593.605469 700.03125 606.746094 699.242188 617.597656 695.3125 C 617.695312 695.28125 617.660156 695.136719 617.550781 695.152344 C 605.746094 697.519531 595.183594 698.355469 584.667969 691.625 Z M 611.285156 441.472656 C 612.265625 441.359375 613.332031 440.472656 614.085938 439.894531 C 614.988281 439.203125 615.632812 438.445312 616.117188 437.414062 C 616.132812 437.382812 616.101562 437.367188 616.066406 437.382812 C 615.277344 438.21875 614.34375 438.976562 613.425781 439.652344 C 612.71875 440.167969 611.703125 440.585938 611.1875 441.3125 C 611.15625 441.375 611.222656 441.472656 611.285156 441.472656 Z M 612.25 447.203125 C 618.257812 445.402344 626.375 440.101562 626.632812 433.066406 C 626.632812 433.019531 626.566406 433.003906 626.550781 433.050781 C 625.183594 436.09375 623.570312 438.800781 621.300781 441.277344 C 618.773438 444.046875 615.148438 444.933594 612.203125 447.09375 C 612.136719 447.125 612.171875 447.238281 612.25 447.203125 Z M 618.5625 449.074219 C 625.101562 448.476562 633.441406 441.890625 631.671875 434.5625 C 631.65625 434.515625 631.574219 434.515625 631.558594 434.5625 C 630.960938 438.140625 630.320312 441.296875 627.726562 444.046875 C 625.085938 446.867188 622.089844 447.769531 618.515625 448.765625 C 618.371094 448.832031 618.402344 449.089844 618.5625 449.074219 Z M 202.28125 419.847656 C 202.28125 417.351562 202.910156 414.871094 201.136719 412.90625 C 201.089844 412.84375 200.976562 412.90625 201.007812 412.988281 C 203.019531 419.007812 198.996094 430.410156 207.625 432.953125 C 207.675781 432.96875 207.722656 432.90625 207.675781 432.875 C 203.488281 429.265625 202.265625 425.289062 202.28125 419.847656 Z M 635.050781 441.441406 C 635.761719 439.734375 636.003906 437.914062 635.988281 436.078125 C 635.988281 435.996094 635.875 435.980469 635.839844 436.0625 C 635.164062 437.6875 634.941406 439.425781 634.28125 441.054688 C 633.699219 442.503906 632.394531 443.644531 632.023438 445.09375 C 632.023438 445.113281 632.042969 445.128906 632.058594 445.128906 C 633.492188 444.742188 634.519531 442.726562 635.050781 441.441406 Z M 538.117188 146.554688 C 538.582031 146.34375 538.566406 145.25 538.226562 145.058594 C 537.890625 144.863281 533.527344 145.363281 533.832031 146.507812 C 533.914062 146.796875 535.34375 146.378906 538.117188 146.554688 Z M 297.398438 127.941406 C 297.976562 128.308594 298.816406 127.8125 298.785156 125.8125 C 299.136719 125.847656 299.492188 125.847656 299.847656 125.703125 C 299.925781 125.667969 299.957031 125.574219 299.894531 125.507812 C 298.863281 124.398438 296.222656 124.71875 295.820312 126.3125 C 295.804688 126.34375 295.851562 126.394531 295.886719 126.363281 C 296.289062 126.105469 296.707031 125.960938 297.140625 125.863281 C 297.058594 126.523438 296.949219 127.664062 297.398438 127.941406 Z M 538.132812 150.273438 C 537.792969 149.5 537.019531 149.226562 536.199219 149.257812 C 535.585938 149.292969 534.523438 149.453125 534.203125 150.046875 C 533.960938 150.484375 534.234375 150.628906 534.636719 150.546875 C 535.730469 150.320312 536.667969 149.757812 537.710938 150.597656 C 537.953125 150.789062 538.242188 150.546875 538.132812 150.273438 Z M 300.023438 124.171875 C 300.023438 123.914062 300.023438 123.625 299.992188 123.335938 C 298.527344 122.578125 295.949219 122.175781 295.722656 122.289062 C 295.433594 122.433594 295.144531 123.480469 295.546875 123.703125 C 297.589844 123.558594 299.121094 123.898438 300.023438 124.171875 Z M 578.855469 237.113281 C 580.511719 233.332031 581.816406 229.304688 584.183594 225.890625 C 586.648438 222.332031 590.546875 220.882812 593.25 217.726562 C 593.265625 217.695312 593.234375 217.664062 593.21875 217.695312 C 591.445312 219.128906 589.113281 219.757812 587.308594 221.15625 C 585.941406 222.234375 584.765625 223.554688 583.765625 224.972656 C 581.222656 228.582031 579.773438 232.800781 578.773438 237.082031 C 578.757812 237.132812 578.839844 237.164062 578.855469 237.113281 Z M 543.6875 146.34375 C 545.8125 145.878906 549.257812 146.585938 549.03125 146.039062 C 548.066406 144.636719 543.945312 144.507812 543.460938 144.800781 C 542.976562 145.089844 543.21875 146.441406 543.6875 146.34375 Z M 537.246094 156.410156 C 537.632812 158.019531 539.886719 158.292969 541.125 157.664062 C 541.191406 157.632812 541.140625 157.550781 541.09375 157.550781 C 539.839844 157.390625 537.550781 157.117188 538.179688 155.234375 C 538.46875 154.347656 539.226562 153.574219 539.613281 152.707031 C 540.097656 151.59375 540.304688 150.339844 539.46875 149.371094 C 539.402344 149.292969 539.273438 149.355469 539.273438 149.453125 C 539.289062 151.304688 538.742188 152.558594 537.90625 154.171875 C 537.566406 154.832031 537.070312 155.621094 537.246094 156.410156 Z M 193.699219 436.722656 C 194.582031 436.578125 195.179688 436.207031 195.902344 435.722656 C 196 435.660156 195.921875 435.5 195.808594 435.5625 C 195.113281 435.933594 194.214844 436.0625 193.441406 436.046875 C 193.117188 436.046875 192.746094 435.996094 192.410156 436.011719 C 191.074219 435.128906 189.785156 434.160156 188.640625 432.875 C 186.386719 430.3125 184.792969 427.285156 182.828125 424.515625 C 182.796875 424.46875 182.714844 424.5 182.730469 424.546875 C 184.824219 429.683594 189.625 438.089844 196.015625 438.363281 C 196.03125 438.363281 196.03125 438.347656 196.015625 438.347656 C 195.179688 437.769531 194.324219 437.253906 193.503906 436.722656 C 193.570312 436.738281 193.632812 436.738281 193.699219 436.722656 Z M 469.308594 152.558594 C 468.070312 153.285156 466.894531 154.105469 465.894531 155.121094 C 465.816406 155.203125 465.894531 155.363281 466.007812 155.3125 C 468.035156 154.492188 469.742188 153.027344 471.789062 152.238281 C 471.804688 152.238281 471.804688 152.222656 471.789062 152.207031 C 470.933594 151.644531 470.128906 152.078125 469.308594 152.558594 Z M 487.683594 684.734375 C 486.234375 683.121094 484.589844 681.140625 482.625 680.175781 C 482.496094 680.113281 482.320312 680.257812 482.417969 680.386719 C 483.574219 682.140625 485.394531 683.542969 486.8125 685.105469 C 488.40625 686.84375 489.902344 688.679688 491.480469 690.433594 C 491.59375 690.546875 491.773438 690.402344 491.707031 690.257812 C 490.597656 688.277344 489.195312 686.425781 487.683594 684.734375 Z M 488.375 682.300781 C 488.34375 682.269531 488.292969 682.316406 488.308594 682.351562 C 489.550781 684.925781 492.738281 685.378906 495.296875 685.894531 C 499.308594 686.699219 503.285156 686.761719 507.3125 686.070312 C 507.390625 686.054688 507.375 685.925781 507.296875 685.925781 C 501.789062 685.988281 492.625 686.457031 488.375 682.300781 Z M 421.210938 76.75 C 421.257812 76.621094 421.179688 76.523438 421.128906 76.410156 C 421.066406 76.265625 420.984375 76.152344 420.871094 76.042969 C 420.761719 75.945312 420.632812 75.847656 420.503906 75.800781 C 420.4375 75.765625 420.375 75.734375 420.308594 75.734375 C 420.210938 75.71875 420.148438 75.765625 420.050781 75.785156 C 420.019531 75.785156 420.019531 75.816406 420.035156 75.832031 C 420.082031 75.945312 420.050781 75.976562 420.117188 76.058594 C 420.148438 76.105469 420.210938 76.171875 420.261719 76.203125 C 420.355469 76.28125 420.453125 76.378906 420.550781 76.445312 C 420.664062 76.523438 420.761719 76.589844 420.871094 76.652344 C 420.96875 76.71875 421.035156 76.78125 421.144531 76.78125 C 421.179688 76.796875 421.195312 76.78125 421.210938 76.75 Z M 421 717.855469 C 420.984375 717.839844 420.96875 717.855469 420.96875 717.871094 C 427.570312 730.851562 450.984375 729.128906 462.351562 725.390625 C 462.417969 725.375 462.402344 725.261719 462.320312 725.28125 C 449.519531 728.53125 430.195312 729.371094 421 717.855469 Z M 540.757812 189 C 535.539062 189.175781 531.511719 191.464844 527.566406 194.734375 C 527.472656 194.8125 527.601562 194.992188 527.714844 194.910156 C 531.464844 192.011719 536.230469 190.335938 540.757812 189 Z M 542.960938 190.128906 C 537.421875 194.234375 533.734375 201.046875 531.351562 207.359375 C 531.335938 207.40625 531.417969 207.453125 531.449219 207.40625 C 534.429688 200.917969 538.792969 195.925781 543.140625 190.371094 C 543.21875 190.242188 543.105469 190.015625 542.960938 190.128906 Z M 561.222656 149.40625 C 561.5625 150.628906 561.125 153.785156 559.515625 153.960938 C 559.128906 154.007812 559.113281 154.621094 559.515625 154.589844 C 561.753906 154.429688 562.527344 150.933594 561.269531 149.386719 C 561.253906 149.355469 561.222656 149.386719 561.222656 149.40625 Z M 639.578125 757.933594 C 620.207031 774.441406 595.601562 775.40625 575.8125 758.917969 C 575.746094 758.871094 575.667969 758.949219 575.730469 759 C 592.960938 776.421875 623.121094 776.535156 639.707031 758.046875 C 639.753906 757.96875 639.65625 757.871094 639.578125 757.933594 Z M 232.054688 206.535156 C 232.039062 206.535156 232.039062 206.550781 232.054688 206.535156 C 238.027344 208.4375 243.953125 209.113281 249.589844 212.15625 C 255.03125 215.101562 259.621094 219.355469 262.792969 224.683594 C 262.828125 224.730469 262.890625 224.683594 262.859375 224.636719 C 257.625 213.445312 244.40625 206.003906 232.054688 206.535156 Z M 544.910156 158.726562 C 544.136719 159.660156 543.171875 160.257812 541.964844 160.402344 C 540.980469 160.515625 540.097656 160.191406 539.128906 160.082031 C 539.066406 160.082031 539.050781 160.144531 539.082031 160.191406 C 540.5 162.011719 543.316406 161.289062 544.910156 159.953125 C 544.976562 160.722656 544.910156 161.496094 544.621094 162.222656 C 544.121094 163.492188 542.816406 164.847656 541.367188 163.878906 C 541.335938 163.847656 541.289062 163.914062 541.320312 163.945312 C 542.253906 164.992188 543.703125 164.605469 544.621094 163.703125 C 545.875 162.464844 545.972656 160.5625 545.636719 158.9375 C 545.585938 158.613281 545.121094 158.484375 544.910156 158.726562 Z M 539.820312 404.644531 C 539.820312 404.53125 539.660156 404.53125 539.644531 404.644531 C 534.667969 461.746094 539.179688 518.683594 545.152344 575.492188 C 545.152344 575.558594 545.265625 575.558594 545.265625 575.492188 C 539.855469 518.378906 536.972656 462.019531 539.820312 404.644531 Z M 421.050781 68.585938 C 421.566406 68.265625 421.742188 67.492188 421.679688 66.925781 C 421.679688 66.863281 421.597656 66.832031 421.566406 66.894531 C 421.371094 67.234375 421.019531 67.8125 420.679688 68.054688 C 420.066406 68.488281 419.148438 67.699219 418.554688 67.425781 C 417.507812 66.960938 416.394531 66.667969 415.269531 66.574219 C 415.140625 66.558594 415.109375 66.765625 415.238281 66.796875 C 416.25 67.023438 417.25 67.265625 418.214844 67.652344 C 418.761719 67.878906 419.808594 68.667969 420.390625 68.730469 C 420.535156 68.746094 420.664062 68.730469 420.792969 68.699219 C 420.808594 69.292969 420.792969 69.953125 420.46875 70.453125 C 419.859375 71.4375 418.828125 71.210938 417.992188 70.96875 C 416.960938 70.664062 416.089844 70.117188 415.125 69.664062 C 415.042969 69.632812 414.964844 69.714844 415.027344 69.792969 C 416.042969 70.855469 418.214844 71.855469 419.714844 71.675781 C 421.339844 71.484375 421.742188 69.808594 421.050781 68.585938 Z M 543.492188 150.386719 C 543.398438 150.597656 543.589844 150.804688 543.800781 150.691406 C 544.539062 150.304688 545.167969 149.808594 545.988281 149.613281 C 547.019531 149.371094 547.96875 149.628906 548.984375 149.789062 C 549.113281 149.808594 549.210938 149.679688 549.113281 149.566406 C 547.710938 148.050781 544.425781 148.488281 543.492188 150.386719 Z M 305.113281 171.625 C 303.226562 170.628906 298.832031 167.792969 296.496094 168.324219 C 295.789062 167.777344 295.0625 167.261719 294.324219 166.8125 C 294.226562 166.746094 294.128906 166.890625 294.210938 166.972656 C 297.253906 170.433594 300.8125 173.363281 303.726562 176.972656 C 305.03125 178.582031 307.6875 181.125 308.269531 183.203125 C 308.558594 184.25 307.992188 185.199219 307.753906 186.359375 C 307.734375 186.457031 307.847656 186.503906 307.898438 186.425781 C 310.441406 182.898438 308.652344 181.980469 306.03125 178.535156 C 303.597656 175.34375 300.78125 171.898438 297.589844 169.195312 C 300.007812 170.515625 302.746094 171.417969 305.160156 172.753906 C 308.074219 174.363281 310.890625 176.167969 313.679688 178.003906 C 313.742188 178.050781 313.824219 177.9375 313.773438 177.890625 C 311.167969 175.363281 308.300781 173.316406 305.113281 171.625 Z M 415.367188 77.859375 C 409.039062 77.8125 402.257812 77.136719 396.011719 78.167969 C 402.257812 79.199219 409.054688 78.519531 415.367188 78.472656 C 415.769531 78.472656 415.769531 77.859375 415.367188 77.859375 Z M 304.257812 185.746094 C 304.015625 185.652344 303.871094 186.039062 304.082031 186.167969 C 307.640625 188.179688 309.570312 188.710938 309.039062 192.480469 C 308.652344 195.28125 308.25 198.082031 307.863281 200.882812 C 307.316406 204.972656 306.785156 209.046875 306.5625 213.171875 C 306.5625 213.25 306.691406 213.265625 306.707031 213.1875 C 307.847656 207.96875 308.492188 202.65625 309.183594 197.375 C 309.425781 195.523438 310.652344 191.949219 310.136719 190.128906 C 309.539062 188.003906 306.191406 186.554688 304.257812 185.746094 Z M 283.96875 206.054688 C 280.476562 204.894531 276.980469 203.765625 273.46875 202.6875 C 268.269531 201.078125 269.007812 200.078125 268.476562 193.992188 C 269.703125 193.542969 270.878906 192.976562 272.003906 192.269531 C 272.085938 192.222656 272.035156 192.074219 271.941406 192.109375 C 269.863281 192.769531 267.785156 193.429688 265.660156 193.894531 C 264.164062 194.234375 261.925781 194.089844 260.863281 192.703125 C 260.941406 192.800781 260.492188 189.886719 260.507812 190 C 259.800781 185.765625 258.882812 180.578125 256.820312 176.792969 C 256.804688 176.777344 256.773438 176.777344 256.773438 176.8125 C 256.804688 180.046875 258.058594 183.234375 258.816406 186.375 C 259.21875 188.019531 259.605469 189.675781 259.910156 191.351562 C 259.816406 190.996094 260.265625 194.636719 260.605469 194.894531 C 261.539062 195.585938 263.101562 195.199219 264.128906 195.054688 C 265.597656 194.863281 266.996094 194.523438 268.332031 194.039062 C 268.382812 196.648438 268.589844 199.144531 268.960938 201.738281 C 268.976562 201.835938 269.058594 201.898438 269.136719 201.914062 C 280.636719 205.523438 292.9375 208.695312 303.710938 214.199219 C 304.097656 214.394531 304.433594 213.816406 304.046875 213.621094 C 297.703125 210.367188 290.699219 208.273438 283.96875 206.054688 Z M 336.1875 210.015625 C 337.042969 216.085938 337.65625 222.558594 339.570312 228.386719 C 339.667969 228.691406 340.183594 228.660156 340.152344 228.308594 C 339.714844 222.15625 337.832031 215.925781 336.316406 209.980469 C 336.285156 209.902344 336.171875 209.933594 336.1875 210.015625 Z M 297.527344 505.15625 C 288.398438 559.070312 283.40625 614.605469 281.519531 669.257812 C 281.519531 669.484375 281.84375 669.484375 281.875 669.257812 C 287.027344 614.511719 289.863281 559.695312 297.625 505.175781 C 297.625 505.125 297.542969 505.09375 297.527344 505.15625 Z M 306.238281 168.066406 C 306.175781 168.066406 306.140625 168.179688 306.222656 168.195312 C 311.003906 169.292969 315.320312 170.59375 319.636719 173.042969 C 319.683594 173.074219 319.75 172.996094 319.699219 172.945312 C 315.996094 169.855469 311.117188 167.84375 306.238281 168.066406 Z M 354.980469 133.800781 C 354.675781 133.945312 354.902344 134.378906 355.207031 134.316406 C 360.054688 133.222656 365.078125 135.878906 368.84375 138.648438 C 368.878906 138.664062 368.894531 138.632812 368.878906 138.597656 C 365.980469 135.023438 359.570312 131.59375 354.980469 133.800781 Z M 409.101562 71.164062 C 409.054688 71.113281 408.988281 71.144531 408.972656 71.210938 C 408.859375 72.644531 410.503906 73.675781 411.757812 73.851562 C 413.257812 74.042969 414.671875 73.402344 415.445312 72.113281 C 415.527344 71.96875 415.347656 71.773438 415.203125 71.871094 C 414.207031 72.53125 413.160156 73.175781 411.917969 73.0625 C 410.519531 72.949219 410.050781 71.984375 409.101562 71.164062 Z M 408.085938 82.128906 C 408.070312 82.097656 408.023438 82.113281 408.039062 82.144531 C 408.070312 84.769531 409.570312 88.554688 411.695312 90.179688 C 411.773438 90.242188 411.886719 90.148438 411.855469 90.050781 C 411.355469 88.761719 410.488281 87.652344 409.859375 86.394531 C 409.183594 85.027344 408.746094 83.527344 408.085938 82.128906 Z M 416.765625 60.761719 C 416.832031 60.777344 416.910156 60.777344 417.054688 60.792969 C 417.78125 60.871094 418.328125 61.210938 418.957031 61.53125 C 419.550781 61.839844 420.519531 62.546875 421.210938 62.289062 C 421.210938 62.289062 421.226562 62.289062 421.210938 62.273438 C 421.050781 61.484375 419.746094 61.082031 419.054688 60.855469 C 418.359375 60.613281 417.507812 60.292969 416.75 60.453125 C 416.703125 59.921875 416.445312 59.3125 416.089844 58.925781 C 415.527344 58.328125 414.769531 58.503906 414.109375 58.136719 C 414.09375 58.117188 414.0625 58.152344 414.078125 58.167969 C 414.269531 58.359375 414.433594 58.441406 414.671875 58.554688 C 415.542969 58.988281 416.363281 59.519531 416.15625 60.648438 C 416.042969 61.292969 415.6875 61.773438 415.203125 62.210938 C 414.898438 62.484375 414.671875 62.613281 414.542969 62.980469 C 414.511719 63.046875 414.59375 63.128906 414.65625 63.128906 C 414.867188 63.128906 415.058594 63.0625 415.253906 62.980469 C 415.269531 63 415.269531 63.015625 415.285156 63.03125 C 416.316406 63.449219 417.410156 63.640625 418.425781 64.125 C 419.277344 64.527344 420.035156 65.109375 420.921875 65.414062 C 420.984375 65.429688 421.035156 65.367188 421 65.300781 C 420.40625 64.285156 419.261719 63.738281 418.214844 63.304688 C 417.457031 62.980469 416.460938 62.578125 415.605469 62.773438 C 416.25 62.304688 416.71875 61.46875 416.765625 60.761719 Z M 426.6875 74.816406 C 423.789062 78.503906 425.074219 83.753906 426.539062 87.765625 C 426.558594 87.796875 426.589844 87.78125 426.589844 87.746094 C 425.492188 83.207031 424.722656 79.324219 426.832031 74.929688 C 426.878906 74.832031 426.765625 74.738281 426.6875 74.816406 Z M 426.6875 74.816406 " fill-opacity="1" fill-rule="nonzero"/></svg>