<svg xmlns="http://www.w3.org/2000/svg" version="1.1" xmlns:xlink="http://www.w3.org/1999/xlink" width="512" height="512" x="0" y="0" viewBox="0 0 128 128" style="enable-background:new 0 0 512 512" xml:space="preserve" class=""><g><path fill="#ffff1b" d="M92 57.667h33.167v40.5H92zM3 57.667h33v40.5H3zM44 44h18v30H44zM84 78v28a2.006 2.006 0 0 1-2 2H66V78zM66 44h18v30H66zM62 78v30H46a2.006 2.006 0 0 1-2-2V78z" opacity="1" data-original="#ffdb80" class=""></path><g fill="#2d4356"><path d="M36 80v-4H24V59h12v-4h-.656a7.06 7.06 0 0 0-.45-6.742A6.946 6.946 0 0 0 29.007 45a6.84 6.84 0 0 0-3.722 1.103 7.662 7.662 0 0 0-2.687 3.328c-.099.21-.68 1.156-.598 1.343l-.746-1.688a6.988 6.988 0 0 0-2.555-2.992A6.828 6.828 0 0 0 14.992 45a6.944 6.944 0 0 0-5.886 3.255A7.064 7.064 0 0 0 8.656 55H5.478A5.496 5.496 0 0 0 0 60.5v35a5.496 5.496 0 0 0 5.478 5.5H36v-4H24V80zm-9.6-29.288A2.876 2.876 0 0 1 29.007 49a2.968 2.968 0 0 1 2.51 1.401 3.015 3.015 0 0 1-.856 4.149 2.842 2.842 0 0 1-1.559.45l-4.57-.058zM14 54.86a3.012 3.012 0 0 1-1.517-4.462A2.967 2.967 0 0 1 14.993 49a2.914 2.914 0 0 1 2.606 1.709l1.87 4.233-4.576.058a2.968 2.968 0 0 1-.893-.14zM5.478 59H20v17H4V60.5A1.491 1.491 0 0 1 5.478 59zM4 95.5V80h16v17H5.478A1.491 1.491 0 0 1 4 95.5zM105 35h2v2a2 2 0 0 0 4 0v-2h2a2 2 0 0 0 0-4h-2v-2a2 2 0 0 0-4 0v2h-2a2 2 0 0 0 0 4zM14 30h2v2a2 2 0 0 0 4 0v-2h2a2 2 0 0 0 0-4h-2v-2a2 2 0 0 0-4 0v2h-2a2 2 0 0 0 0 4z" fill="#2d4356" opacity="1" data-original="#2d4356" class=""></path><circle cx="53" cy="59" r="2" fill="#2d4356" opacity="1" data-original="#2d4356" class=""></circle><circle cx="75" cy="59" r="2" fill="#2d4356" opacity="1" data-original="#2d4356" class=""></circle><circle cx="53" cy="93" r="2" fill="#2d4356" opacity="1" data-original="#2d4356" class=""></circle><circle cx="75" cy="93" r="2" fill="#2d4356" opacity="1" data-original="#2d4356" class=""></circle><path d="M122.521 55h-3.177a7.06 7.06 0 0 0-.45-6.742A6.946 6.946 0 0 0 113.007 45a6.846 6.846 0 0 0-6.264 4.092L106 50.774l-.746-1.688a6.988 6.988 0 0 0-2.555-2.992A6.828 6.828 0 0 0 98.992 45a6.944 6.944 0 0 0-5.886 3.255 7.064 7.064 0 0 0-.45 6.745H92v4h12v17H92v4h12v17H92v4h30.521A5.496 5.496 0 0 0 128 95.5v-35a5.496 5.496 0 0 0-5.479-5.5zM124 60.5V76h-16V59h14.521A1.491 1.491 0 0 1 124 60.5zm-13.6-9.788A2.883 2.883 0 0 1 113.007 49a2.968 2.968 0 0 1 2.51 1.401 3.015 3.015 0 0 1-.856 4.149 2.842 2.842 0 0 1-1.559.45l-4.57-.058zM98.893 55a2.885 2.885 0 0 1-1.556-.451 3.016 3.016 0 0 1-.854-4.15A2.967 2.967 0 0 1 98.993 49a2.91 2.91 0 0 1 2.606 1.709l1.87 4.233-4.576.058zm23.628 42H108V80h16v15.5a1.491 1.491 0 0 1-1.479 1.5zM88 28h-9.02a8.25 8.25 0 0 0-.2-8.26 7.755 7.755 0 0 0-6.6-3.74A7.526 7.526 0 0 0 68 17.27a7.885 7.885 0 0 0-2.84 3.42L64 23.4l-1.17-2.71a7.912 7.912 0 0 0-2.84-3.43A7.54 7.54 0 0 0 55.82 16a7.755 7.755 0 0 0-6.6 3.74 8.25 8.25 0 0 0-.2 8.26H40a2.006 2.006 0 0 0-2 2v12a2.006 2.006 0 0 0 2 2v62a6.005 6.005 0 0 0 6 6h36a6.005 6.005 0 0 0 6-6V44a2.006 2.006 0 0 0 2-2V30a2.006 2.006 0 0 0-2-2zm-19.16-5.73A3.686 3.686 0 0 1 72.18 20a3.768 3.768 0 0 1 3.19 1.84 4.122 4.122 0 0 1-1.1 5.57 3.596 3.596 0 0 1-1.99.59l-5.87-.08zm-16.21-.43A3.756 3.756 0 0 1 55.82 20a3.713 3.713 0 0 1 3.34 2.27l2.43 5.65-5.88.08a3.673 3.673 0 0 1-1.14-.18 4.08 4.08 0 0 1-1.94-5.98zM62 108H46a2.006 2.006 0 0 1-2-2V78h18zm0-34H44V44h18zm22 32a2.006 2.006 0 0 1-2 2H66V78h18zm0-32H66V44h18zm2-34H42v-8h44z" fill="#2d4356" opacity="1" data-original="#2d4356" class=""></path></g><path fill="#ffff1b" d="M42 32h44v8H42z" opacity="1" data-original="#fc785e" class=""></path><path fill="#ad935945" d="M62 106v2H46a2.006 2.006 0 0 1-2-2v-2a2.006 2.006 0 0 0 2 2zM84 104v2a2.006 2.006 0 0 1-2 2H66v-2h16a2.006 2.006 0 0 0 2-2z" opacity="1" data-original="#ad935945" class=""></path><path fill="#a54b3f50" d="M42 38h44v2H42z" opacity="1" data-original="#a54b3f50" class=""></path><path fill="#f9edd250" d="M66 44h18v2H66zM44 44h18v2H44z" opacity="1" data-original="#f9edd250" class=""></path><path fill="#f9dbd730" d="M42 32h44v2H42z" opacity="1" data-original="#f9dbd730" class=""></path><path fill="#ad935945" d="M24 95h12v2H24zM92 95h12v2H92zM20 95v2H5.48A1.487 1.487 0 0 1 4 95.5v-2A1.487 1.487 0 0 0 5.48 95z" opacity="1" data-original="#ad935945" class=""></path><path fill="#f9edd250" d="M24 59h12v2H24zM20 59v2H5.48A1.487 1.487 0 0 0 4 62.5v-2A1.487 1.487 0 0 1 5.48 59zM124 60.5v2a1.487 1.487 0 0 0-1.48-1.5H108v-2h14.52a1.487 1.487 0 0 1 1.48 1.5zM92 59h12v2H92z" opacity="1" data-original="#f9edd250" class=""></path><path fill="#ad935945" d="M124 93.5v2a1.487 1.487 0 0 1-1.48 1.5H108v-2h14.52a1.487 1.487 0 0 0 1.48-1.5z" opacity="1" data-original="#ad935945" class=""></path></g></svg>